<svg width="124" height="20" viewBox="0 0 124 20" fill="none" xmlns="http://www.w3.org/2000/svg">
    <path fill-rule="evenodd" clip-rule="evenodd" d="M6.46425 13.5522H14.9143C21.8302 13.5522 23.9363 10.6662 23.9363 7.20825V6.94825C23.9363 3.41225 21.8563 0.65625 14.9143 0.65625H0.40625V20.0002H6.46425V13.5522ZM6.46425 9.21025V5.05025H14.8103C16.7343 5.05025 17.6182 5.80425 17.6182 7.10425V7.18225C17.6182 8.48225 16.7083 9.21025 14.8103 9.21025H6.46425ZM32.6095 0.65625H26.5515V20.0002H43.5083H46.0515H49.6702L51.4123 16.4643H63.1383L64.9583 20.0002H71.4843L61.1363 0.65625H53.2843L45.9391 15.1903H32.6095V0.65625ZM57.1583 4.84225L60.9023 12.0962H53.5703L57.1583 4.84225ZM77.3064 12.5122V20.0002H83.3644V12.5122L93.2923 0.814241L103.502 12.5122V20.0002H109.56V12.5122L119.622 0.65625H112.784L106.674 7.78025L100.668 0.65625H93.4264H93.1544H86.5884L80.4784 7.78025L74.4724 0.65625H66.9584L77.3064 12.5122ZM123.087 20.0002V15.4502H116.821V20.0002H123.087Z" fill="#D1433A"/>
</svg>
